PathFileType	4	(X/Y/Z)	E:\Qualisys_Data\Carbon_Farble_Plate\Data\Amateur_Runner\S14\T3\S14T3V13_c3d.trc
DataRate	CameraRate	NumFrames	NumMarkers	Units	OrigDataRate	OrigDataStartFrame	OrigNumFrames
200.000000	200.000000	4	39	mm	200.000000	42	336
Frame#	Time	LSHO			RSHO			LICST			RICST			LASIS			LHEEL			RASIS			LTROC			RTROC			SACR			LTH1			LSK4			LTH2			LTH3			RHM5			LSK2			LTH4			RTH1			LTOE			RTH2			RTH3			RTH4			LLEP			RLEP			LSK1			LSK3			RSK1			LHM5			RSK2			LFT1			RSK3			RSK4			LLME			RLME			RTOE			RHEEL			RFT1			RFT2			LFT2			
		X1	Y1	Z1	X2	Y2	Z2	X3	Y3	Z3	X4	Y4	Z4	X5	Y5	Z5	X6	Y6	Z6	X7	Y7	Z7	X8	Y8	Z8	X9	Y9	Z9	X10	Y10	Z10	X11	Y11	Z11	X12	Y12	Z12	X13	Y13	Z13	X14	Y14	Z14	X15	Y15	Z15	X16	Y16	Z16	X17	Y17	Z17	X18	Y18	Z18	X19	Y19	Z19	X20	Y20	Z20	X21	Y21	Z21	X22	Y22	Z22	X23	Y23	Z23	X24	Y24	Z24	X25	Y25	Z25	X26	Y26	Z26	X27	Y27	Z27	X28	Y28	Z28	X29	Y29	Z29	X30	Y30	Z30	X31	Y31	Z31	X32	Y32	Z32	X33	Y33	Z33	X34	Y34	Z34	X35	Y35	Z35	X36	Y36	Z36	X37	Y37	Z37	X38	Y38	Z38	X39	Y39	Z39	

43	0.21	-2099.06494140625	1403.126953125	-445.6912536621094	-2151.619140625	1390.698852539062	-141.0141296386719	-2176.62841796875	952.5254516601562	-444.8318786621094	-2176.265625	964.9204711914062	-166.2646484375	-2137.17626953125	904.3384399414062	-418.991943359375	-2642.7080078125	443.5500793457031	-344.274169921875	-2143.43115234375	927.9232177734376	-186.41845703125	-2271.410888671875	831.9381713867188	-470.1626281738281	-2270.8447265625	835.7125854492188	-138.33984375	-2318.0849609375	953.0667114257812	-322.3887329101562	-2216.3427734375	611.5506591796875	-482.3446350097656	-2467.517822265625	461.21484375	-439.1150817871094	-2294.469970703125	611.7965087890625	-461.134765625	-2210.4462890625	512.276123046875	-470.6958923339844	-2036.046508789062	80.33081817626953	-170.7482452392578	-2377.10693359375	482.7395629882812	-469.3086242675781	-2290.76611328125	513.3092651367188	-453.9938049316406	-2057.3798828125	674.7435302734375	-141.8957061767578	-2678.961181640625	190.5064086914062	-402.8440246582031	-2129.05615234375	646.247802734375	-134.9029693603516	-2017.6533203125	588.2915649414062	-175.012451171875	-2093.668701171875	553.5115356445312	-158.7341918945312	-2276.391845703125	463.1988220214844	-473.4111022949219	-2044.145629882812	499.8212890625	-170.7989044189453	-2355.537353515625	401.4422302246094	-465.1459045410156	-2453.587646484375	381.8493957519531	-443.4105224609375	-2036.591674804688	374.5634460449219	-176.4236907958984	-2697.46337890625	270.0247192382812	-448.1813354492188	-2119.03857421875	389.7091369628906	-164.0343627929688	-2666.73974609375	430.8995056152344	-313.2298889160156	-2064.3017578125	276.4789428710938	-195.2165069580078	-2139.180419921875	296.8179016113281	-182.5211029052734	-2628.189208984375	398.3792419433594	-410.9680480957031	-2156.881103515625	129.8684844970703	-211.0829162597656	-1961.118286132812	85.64115142822266	-237.6605529785156	-2215.77197265625	105.1524276733398	-268.7791137695312	-2206.31884765625	72.36027526855469	-291.1661071777344	-2223.07568359375	85.32907104492188	-241.933837890625	-2675.64697265625	448.9408874511719	-363.3625183105469
44	0.215	-2085.03076171875	1399.765747070312	-445.8712768554688	-2134.990234375	1385.911010742188	-140.5155029296875	-2163.916748046875	948.9423217773438	-445.3235168457031	-2160.62158203125	960.8866577148438	-166.1962738037109	-2123.69970703125	900.7063598632812	-419.3501892089844	-2613.21923828125	440.237548828125	-338.2465209960938	-2130.16357421875	924.547607421875	-186.0795593261719	-2256.6767578125	827.6681518554688	-469.4501037597656	-2256.20361328125	834.1804809570312	-138.6290130615234	-2303.3349609375	950.1294555664062	-321.523193359375	-2195.015625	608.2147827148438	-482.4734497070312	-2441.30126953125	459.3699035644531	-439.35302734375	-2272.740966796875	606.45751953125	-461.1444702148438	-2186.5966796875	509.3131408691406	-470.773193359375	-2035.955688476562	80.41241455078125	-171.0254974365234	-2351.3369140625	480.4761047363281	-469.9818725585938	-2267.0576171875	508.3196105957031	-454.6116638183594	-2043.510620117188	672.1400756835938	-142.2063598632812	-2651.471923828125	190.4290466308594	-401.9057312011719	-2115.703857421875	644.2105102539062	-134.6971130371094	-2004.893676757812	584.751708984375	-173.8416900634766	-2080.171630859375	550.3370971679688	-156.9008636474609	-2250.07421875	458.946044921875	-474.5829467773438	-2032.8037109375	496.5073547363281	-170.3719329833984	-2329.7978515625	398.1914672851562	-464.9971008300781	-2427.4580078125	379.2178039550781	-442.5221557617188	-2027.814697265625	370.3905639648438	-176.6330413818359	-2670.010009765625	269.4104614257812	-449.4861755371094	-2110.337890625	388.8021545410156	-164.1515045166016	-2644.21142578125	431.4033508300781	-314.7242736816406	-2057.654052734375	274.3031616210938	-194.4542846679688	-2132.358154296875	296.4248046875	-182.1042327880859	-2602.2001953125	398.2857971191406	-411.7443237304688	-2156.25830078125	130.1190643310547	-211.2543487548828	-1961.410522460938	84.56694030761719	-237.9895935058594	-2215.3427734375	105.222412109375	-269.0755920410156	-2206.050537109375	72.4815902709961	-290.8703308105469	-2222.956787109375	85.891357421875	-242.3198699951172	-2648.360107421875	446.4497680664062	-364.7760009765625
45	0.22	-2070.858642578125	1396.820068359375	-445.6732788085938	-2118.2607421875	1381.703857421875	-139.0032653808594	-2149.927001953125	945.7447509765624	-445.7546997070312	-2146.60009765625	958.0228881835938	-165.8728942871094	-2109.6083984375	897.7357788085938	-419.6194152832031	-2589.061767578125	441.1616516113281	-340.1805114746094	-2114.681884765625	922.5077514648438	-186.2017974853516	-2242.047119140625	823.7245483398438	-468.3783569335938	-2242.174560546875	831.6484375	-138.1453552246094	-2289.422607421875	947.065673828125	-320.9834594726562	-2173.815673828125	605.7713012695312	-482.5566711425781	-2414.959716796875	457.0796203613281	-439.3821411132812	-2250.735595703125	601.6659545898438	-461.0937805175781	-2162.407958984375	506.8387756347656	-470.8789672851562	-2036.035400390625	79.70135498046875	-171.1698608398438	-2325.32275390625	478.3231811523438	-471.0466918945312	-2242.871337890625	504.1440124511719	-454.3645935058594	-2031.281494140625	668.5664672851562	-141.6770935058594	-2623.63330078125	189.5926971435547	-401.1803894042969	-2102.90234375	641.3068237304688	-134.6111297607422	-1993.666625976562	580.123291015625	-172.9288635253906	-2067.804443359375	547.23095703125	-156.8134155273438	-2225.154541015625	455.6957092285156	-474.7159423828125	-2022.399047851562	492.2926330566406	-169.6194305419922	-2304.18798828125	395.7938537597656	-464.6792907714844	-2401.909423828125	377.3844604492188	-442.6696166992188	-2020.049560546875	366.5156555175781	-176.0734100341797	-2642.295654296875	268.4646911621094	-450.56298828125	-2102.18505859375	387.7870788574219	-164.9134674072266	-2619.331787109375	431.0211181640625	-316.4241638183594	-2053.865234375	270.9526062011719	-194.8311309814453	-2127.287353515625	295.3349609375	-182.5795745849609	-2575.80126953125	397.2584228515625	-411.9765014648438	-2155.210693359375	129.8923187255859	-211.5009765625	-1960.8876953125	82.96833038330078	-237.8515319824219	-2214.908203125	105.2858047485352	-269.226806640625	-2206.13134765625	72.41069793701172	-291.1317443847656	-2222.9814453125	86.55769348144531	-242.7393798828125	-2623.254638671875	446.0981750488281	-366.0493469238281
46	0.225	-2056.08349609375	1393.857666015625	-445.7639770507812	-2101.80908203125	1377.651977539062	-138.6929473876953	-2137.710693359375	943.9989624023438	-445.3332214355469	-2128.82763671875	954.18115234375	-167.8644714355469	-2095.952880859375	895.2098999023438	-420.6876831054688	-2564.303466796875	440.6941528320312	-341.7591552734375	-2098.411865234375	920.0609130859376	-187.1911926269531	-2228.212158203125	820.490234375	-466.6615295410156	-2228.314453125	829.4754028320312	-138.3373870849609	-2275.1923828125	944.7039794921876	-320.1606750488281	-2152.109375	603.750732421875	-482.6882629394531	-2388.406005859375	455.4674072265625	-439.2511291503906	-2229.677978515625	597.7474975585938	-461.4639587402344	-2137.909423828125	504.9520874023438	-471.1702575683594	-2035.799682617188	79.1734390258789	-171.0425720214844	-2299.011474609375	476.2276916503906	-470.9172973632812	-2218.72314453125	500.9352416992188	-454.5234069824219	-2018.951049804688	664.069091796875	-140.6826629638672	-2595.314697265625	188.1061553955078	-400.3326721191406	-2091.02734375	637.869873046875	-134.4825134277344	-1982.177124023438	575.5179443359375	-172.4188232421875	-2058.41748046875	543.7975463867188	-156.9878845214844	-2200.60693359375	453.7785034179688	-474.6575927734375	-2012.3583984375	487.9525756835938	-168.5913543701172	-2277.890625	393.3404541015625	-464.6980895996094	-2375.776123046875	375.4060668945312	-442.1667785644531	-2012.869262695312	362.4739379882812	-175.5743713378906	-2614.298095703125	266.3545837402344	-450.2149047851562	-2095.002685546875	385.669189453125	-166.0700988769531	-2595.09765625	430.2461547851562	-317.3255004882812	-2049.751220703125	267.2282104492188	-194.6318817138672	-2120.820556640625	294.3467407226562	-182.2117614746094	-2549.41259765625	396.2319030761719	-412.3215026855469	-2154.546142578125	129.6700439453125	-211.5637664794922	-1960.723266601562	82.35960388183594	-238.0040435791016	-2214.638916015625	105.3983688354492	-269.2984008789062	-2206.21923828125	72.47923278808594	-291.2975769042969	-2222.87451171875	86.6730728149414	-242.8602142333984	-2598.12646484375	445.1973266601562	-367.9652709960938
